<?xml version="1.0" encoding="UTF-8"?>
<svg width="434px" height="787px" viewBox="0 0 434 787" version="1.1" xmlns="http://www.w3.org/2000/svg" xmlns:xlink="http://www.w3.org/1999/xlink">
    <!-- Generator: Sketch 51.2 (57519) - http://www.bohemiancoding.com/sketch -->
    <title>phone</title>
    <desc>Created with Sketch.</desc>
    <defs>
        <path d="M63.1536309,3.41060513e-13 C106.090944,3.41060513e-13 246.359839,3.81570821e-13 282.495241,3.81570821e-13 C318.630642,3.81570821e-13 346.718801,14.4285876 346.718801,63.1715016 C346.718801,140.48057 346.718801,602.289407 346.718801,628.315135 C346.718801,654.340864 345.466462,699.539693 285.712035,699.539693 C225.957608,699.539693 80.4462275,699.539693 54.3869629,699.539693 C28.3276984,699.539693 0,683.82141 0,639.231462 C1.353265e-15,594.641514 1.38500548e-15,108.805298 0,63.1715016 C0,11.1490463 32.4894506,3.41060513e-13 63.1536309,3.41060513e-13 Z" id="path-1"></path>
        <filter x="-12.7%" y="-7.4%" width="150.8%" height="125.2%" filterUnits="objectBoundingBox" id="filter-2">
            <feOffset dx="44" dy="36" in="SourceAlpha" result="shadowOffsetOuter1"></feOffset>
            <feGaussianBlur stdDeviation="22" in="shadowOffsetOuter1" result="shadowBlurOuter1"></feGaussianBlur>
            <feColorMatrix values="0 0 0 0 0.0166930749   0 0 0 0 0.230583093   0 0 0 0 0.333519345  0 0 0 0.05 0" type="matrix" in="shadowBlurOuter1"></feColorMatrix>
        </filter>
        <path d="M218.735826,24.7603535 C231.441993,24.9393097 237.020183,13.6631183 237.168717,5.79099884 C237.168717,1.61540687 238.371678,0.243357374 243.0744,0.243357374 C247.777122,0.243357374 254.711516,0.243357374 270.278691,0.243357374 C285.845866,0.243357374 303.741876,7.40160443 303.741876,34.9608556 C303.741876,62.5201067 303.741876,600.462427 303.741876,622.652966 C303.741876,644.843505 291.930509,657.370437 265.623374,657.370437 C239.316238,657.370437 62.1389196,657.370437 35.2983105,657.370437 C8.45770134,657.370437 0.0465763632,641.085425 0.0465763632,623.189807 C0.0465763632,605.29419 0.0465763632,55.5407616 0.0465763632,32.9923105 C0.0465763632,10.4438594 16.1529859,0.0644011974 31.1856348,0.0644011974 C46.2182837,0.0644011974 57.1348502,0.0644011974 61.4298927,0.0644011974 C65.7249353,0.0644011974 66.6197358,2.56978767 66.6197358,5.43308649 C66.6197358,8.29638531 68.1635943,24.461239 85.9474272,24.5813974 C100.980076,24.5813974 201.734616,24.7603535 218.735826,24.7603535 Z" id="path-3"></path>
        <filter x="-0.5%" y="-0.2%" width="101.0%" height="100.5%" filterUnits="objectBoundingBox" id="filter-5">
            <feOffset dx="0" dy="0" in="SourceAlpha" result="shadowOffsetOuter1"></feOffset>
            <feGaussianBlur stdDeviation="0.5" in="shadowOffsetOuter1" result="shadowBlurOuter1"></feGaussianBlur>
            <feColorMatrix values="0 0 0 0 0   0 0 0 0 0   0 0 0 0 0  0 0 0 0.04 0" type="matrix" in="shadowBlurOuter1"></feColorMatrix>
        </filter>
        <rect id="path-6" x="0" y="0" width="16.8171142" height="16.8218806"></rect>
    </defs>
    <g id="Page-6" stroke="none" stroke-width="1" fill="none" fill-rule="evenodd">
        <g id="Desktop-Copy-15" transform="translate(-246.000000, -1092.000000)">
            <g id="Group-10" transform="translate(246.000000, 1100.000000)">
                <g id="phone">
                    <g id="body">
                        <use fill="black" fill-opacity="1" filter="url(#filter-2)" xlink:href="#path-1"></use>
                        <use fill="#FFFFFF" fill-rule="evenodd" xlink:href="#path-1"></use>
                    </g>
                    <g id="drop-your-design-here" transform="translate(20.527553, 25.884244)">
                        <mask id="mask-4" fill="white">
                            <use xlink:href="#path-3"></use>
                        </mask>
                        <g id="screen">
                            <use fill="black" fill-opacity="1" filter="url(#filter-5)" xlink:href="#path-3"></use>
                            <use fill="#FFFFFF" fill-rule="evenodd" xlink:href="#path-3"></use>
                        </g>
                    </g>
                    <path d="M120.582287,671.801486 L225.778703,671.801486 C227.359611,671.801486 228.641191,673.083429 228.641191,674.664785 C228.641191,676.246141 227.359611,677.528084 225.778703,677.528084 L120.582287,677.528084 C119.001379,677.528084 117.719799,676.246141 117.719799,674.664785 C117.719799,673.083429 119.001379,671.801486 120.582287,671.801486 Z" id="bottom" fill="#F0F3F5"></path>
                    <g id="black" opacity="0.400000006" transform="translate(47.946666, 25.564901)">
                        <g id="power_black" transform="translate(245.100494, 14.879195)" fill="#000000">
                            <path d="M2.50467658,0.715824705 C1.51660895,0.715824705 0.71562188,1.5170388 0.71562188,2.50538647 L0.71562188,6.8003347 C0.71562188,7.78868237 1.51660895,8.58989646 2.50467658,8.58989646 L15.3858704,8.58989646 C16.373938,8.58989646 17.1749251,7.78868237 17.1749251,6.8003347 L17.1749251,2.50538647 C17.1749251,1.5170388 16.373938,0.715824705 15.3858704,0.715824705 L2.50467658,0.715824705 Z M2.50467658,0 L15.3858704,0 C16.7691651,-2.5417913e-16 17.890547,1.12169973 17.890547,2.50538647 L17.890547,6.8003347 C17.890547,8.18402144 16.7691651,9.30572117 15.3858704,9.30572117 L2.50467658,9.30572117 C1.1213819,9.30572117 1.6940474e-16,8.18402144 0,6.8003347 L0,2.50538647 C4.6619517e-16,1.12169973 1.1213819,2.5417913e-16 2.50467658,0 Z" id="Rectangle-3" fill-rule="nonzero"></path>
                            <rect id="Rectangle-3" x="1.43124376" y="1.43164941" width="15.0280595" height="6.44242235" rx="1.07330346"></rect>
                            <path d="M18.9639798,3.26631439 C19.581285,3.42524279 20.0374126,3.98576943 20.0374126,4.65286059 C20.0374126,5.31995174 19.581285,5.88047838 18.9639798,6.03940678 L18.9639798,3.26631439 Z" id="Combined-Shape"></path>
                        </g>
                        <g id="wifi_black" transform="translate(235.165522, 12.457567) rotate(-45.000000) translate(-235.165522, -12.457567) translate(226.756965, 4.046627)">
                            <mask id="mask-7" fill="white">
                                <use xlink:href="#path-6"></use>
                            </mask>
                            <g id="Mask"></g>
                            <g id="Group" mask="url(#mask-7)" fill="#000000">
                                <g transform="translate(-9.303084, 7.516159)" id="Oval-3">
                                    <ellipse fill-rule="evenodd" cx="9.30308443" cy="9.30572117" rx="3.22029846" ry="3.22121117"></ellipse>
                                    <path d="M9.30308443,16.4639682 C13.2553549,16.4639682 16.4593032,13.2591119 16.4593032,9.30572117 C16.4593032,5.35233049 13.2553549,2.14747412 9.30308443,2.14747412 C5.35081393,2.14747412 2.14686564,5.35233049 2.14686564,9.30572117 C2.14686564,13.2591119 5.35081393,16.4639682 9.30308443,16.4639682 Z M9.30308443,18.6114423 C4.16513278,18.6114423 0,14.4451291 0,9.30572117 C0,4.16631328 4.16513278,0 9.30308443,0 C14.4410361,0 18.6061689,4.16631328 18.6061689,9.30572117 C18.6061689,14.4451291 14.4410361,18.6114423 9.30308443,18.6114423 Z" fill-rule="nonzero"></path>
                                    <path d="M9.30308443,13.6006694 C11.6744467,13.6006694 13.5968157,11.6777556 13.5968157,9.30572117 C13.5968157,6.93368676 11.6744467,5.01077294 9.30308443,5.01077294 C6.93172213,5.01077294 5.00935316,6.93368676 5.00935316,9.30572117 C5.00935316,11.6777556 6.93172213,13.6006694 9.30308443,13.6006694 Z M9.30308443,15.3902312 C5.9436545,15.3902312 3.22029846,12.6661033 3.22029846,9.30572117 C3.22029846,5.94533909 5.9436545,3.22121117 9.30308443,3.22121117 C12.6625144,3.22121117 15.3858704,5.94533909 15.3858704,9.30572117 C15.3858704,12.6661033 12.6625144,15.3902312 9.30308443,15.3902312 Z" fill-rule="nonzero"></path>
                                </g>
                            </g>
                        </g>
                        <g id="singal_black" transform="translate(210.035022, 15.237107)" fill="#000000">
                            <path d="M0.71562188,5.36868529 L2.14686564,5.36868529 C2.54209269,5.36868529 2.86248752,5.68917093 2.86248752,6.08451 L2.86248752,8.23198411 C2.86248752,8.62732318 2.54209269,8.94780882 2.14686564,8.94780882 L0.71562188,8.94780882 C0.320394829,8.94780882 4.84013543e-17,8.62732318 0,8.23198411 L0,6.08451 C-4.84013543e-17,5.68917093 0.320394829,5.36868529 0.71562188,5.36868529 Z M4.65154222,3.57912353 L6.08278598,3.57912353 C6.47801303,3.57912353 6.79840786,3.89960916 6.79840786,4.29494823 L6.79840786,8.23198411 C6.79840786,8.62732318 6.47801303,8.94780882 6.08278598,8.94780882 L4.65154222,8.94780882 C4.25631517,8.94780882 3.93592034,8.62732318 3.93592034,8.23198411 L3.93592034,4.29494823 C3.93592034,3.89960916 4.25631517,3.57912353 4.65154222,3.57912353 Z M8.58746255,1.78956176 L10.0187063,1.78956176 C10.4139334,1.78956176 10.7343282,2.1100474 10.7343282,2.50538647 L10.7343282,8.23198411 C10.7343282,8.62732318 10.4139334,8.94780882 10.0187063,8.94780882 L8.58746255,8.94780882 C8.1922355,8.94780882 7.87184068,8.62732318 7.87184068,8.23198411 L7.87184068,2.50538647 C7.87184068,2.1100474 8.1922355,1.78956176 8.58746255,1.78956176 Z M12.5233829,0 L13.9546267,0 C14.3498537,-7.26226087e-17 14.6702485,0.320485637 14.6702485,0.715824705 L14.6702485,8.23198411 C14.6702485,8.62732318 14.3498537,8.94780882 13.9546267,8.94780882 L12.5233829,8.94780882 C12.1281558,8.94780882 11.807761,8.62732318 11.807761,8.23198411 L11.807761,0.715824705 C11.807761,0.320485637 12.1281558,7.26226087e-17 12.5233829,0 Z" id="Combined-Shape"></path>
                        </g>
                        <g id="Time_black" transform="translate(0.000000, 10.942159)" fill="#000000">
                            <text id="9-41" font-family="PingFangTC-Semibold, PingFang TC" font-size="12.8796416" font-weight="500" fill-opacity="0.87">
                                <tspan x="0" y="14.0032154">9 41</tspan>
                            </text>
                            <ellipse id="Oval-2" cx="9.66089537" cy="6.8003347" rx="1.07343282" ry="1.07373706"></ellipse>
                            <ellipse id="Oval-2-Copy" cx="9.66089537" cy="11.0952829" rx="1.07343282" ry="1.07373706"></ellipse>
                        </g>
                    </g>
                    <g id="Top" transform="translate(150.996217, 28.275076)" fill="#F0F3F5">
                        <path d="M3.04139299,2.14747412 L39.5381088,2.14747412 C41.2178238,2.14747412 42.5795018,3.50953807 42.5795018,5.18972911 C42.5795018,6.86992015 41.2178238,8.23198411 39.5381088,8.23198411 L3.04139299,8.23198411 C1.36167802,8.23198411 2.05705756e-16,6.86992015 0,5.18972911 C-2.05705756e-16,3.50953807 1.36167802,2.14747412 3.04139299,2.14747412 Z" id="receiver"></path>
                        <ellipse id="camera" cx="58.6809941" cy="5.01077294" rx="5.00935316" ry="5.01077294"></ellipse>
                    </g>
                </g>
            </g>
        </g>
    </g>
</svg>